<?xml version="1.0" encoding="utf-8"?>
<!-- Generator: Adobe Illustrator 26.0.1, SVG Export Plug-In . SVG Version: 6.00 Build 0)  -->
<svg version="1.1" id="Layer_1" xmlns="http://www.w3.org/2000/svg" xmlns:xlink="http://www.w3.org/1999/xlink" x="0px" y="0px"
	 viewBox="0 0 612 792" style="enable-background:new 0 0 612 792;" xml:space="preserve">
<path d="M313.6,278.1l30.5-103.3c2.8-9.5,16.8-6.5,15.6,3.3l-13.9,106.8c-1,7.9,8.8,12.3,13.9,6.2l69.7-81.9c6.4-7.5,18,1,12.8,9.4
	l-56,91.9c-4.1,6.8,3.1,14.8,10.2,11.4l96.8-46.3c8.8-4.2,16,8.2,8,13.8l-88.3,61.1c-6.5,4.5-3.2,14.8,4.7,14.6l107.2-2.8
	c9.8-0.3,11.3,14.1,1.7,15.9L421.1,398c-7.8,1.5-8.9,12.2-1.6,15.3l99,41.3c9.1,3.8,4.6,17.5-4.9,15.2l-104.3-25.1
	c-7.7-1.9-13.1,7.5-7.6,13.3l73.8,78.2c6.7,7.2-2.9,17.9-10.6,11.9l-85.1-65.5c-6.3-4.8-15,1.5-12.3,9l35.7,101.6
	c3.3,9.3-9.8,15.2-14.5,6.5L337.4,505c-3.8-7-14.3-4.8-14.9,3.2l-8.5,107.5c-0.8,9.8-15.1,9.8-15.9,0l-8.5-107.5
	c-0.6-8-11.2-10.2-14.9-3.2l-51.2,94.7c-4.7,8.7-17.8,2.8-14.5-6.5l35.7-101.6c2.6-7.5-6.1-13.9-12.3-9l-85.1,65.5
	c-7.8,6-17.4-4.7-10.6-11.9l73.8-78.2c5.5-5.8,0.1-15.2-7.6-13.3L98.4,469.8c-9.6,2.3-14-11.4-4.9-15.2l99-41.3
	c7.3-3,6.2-13.8-1.6-15.3L85.5,378.3c-9.7-1.8-8.2-16.1,1.7-15.9l107.2,2.8c7.9,0.2,11.2-10.1,4.7-14.6l-88.3-61.1
	c-8.1-5.6-0.9-18.1,8-13.8l96.8,46.3c7.2,3.4,14.4-4.6,10.2-11.4l-56-91.9c-5.1-8.4,6.5-16.9,12.8-9.4l69.7,81.9
	c5.1,6.1,15,1.6,13.9-6.2l-13.9-106.8c-1.3-9.8,12.7-12.8,15.6-3.3l30.5,103.3C300.6,285.7,311.4,285.7,313.6,278.1L313.6,278.1z"/>
</svg>
